<svg xmlns="http://www.w3.org/2000/svg" viewBox="0 0 694.29 119.98"><title>Asset 3</title><path d="M47.73,118.75C25.35,113.82,8.14,97.41,1.86,75c-2.47-8.81-2.48-21.51,0-30.72A60.27,60.27,0,0,1,44.35,1.56C50.08,0,52.48-.2,62.36.15c9.37.32,12.45.77,17.28,2.5,30.66,11,47.1,43,38,74.12-2.94,10.08-7.4,17.38-15.69,25.69-6.08,6.11-8.46,7.84-15.19,11.08-12.64,6.08-26.62,7.95-39,5.21Zm16.05-3.41c1.15-1.74,1.22-2.52.42-4.29-1.25-2.75,0-4.49,3.26-4.49a16.39,16.39,0,0,0,6.06-2.09c6-3.34,15.77-3.92,15.77-.93A2.92,2.92,0,0,0,93,106.07c1.76-.67,1.78-4.44,0-5.11-2.91-1.12,1.29-11.53,6.27-15.54A16.83,16.83,0,0,0,103,80.8c1.88-3.72,2.86-4.09,5.16-1.93,4.1,3.86,9.74-1,6.65-5.67-1.06-1.62-1.9-2-3.84-1.71-1.36.2-2.71,0-3-.44s-.64-4.82-.82-9.72c-.39-11,1-15.8,4.59-16.22,1.74-.2,2.32-.77,2.52-2.5.31-2.64-2-3.6-4.17-1.75-1.2,1-1.74,1-3.86-.1-3.29-1.7-7.58-6.68-9.42-10.94a17.36,17.36,0,0,0-3.27-5c-2.38-2.13-2.26-4.21.31-5.38A3.18,3.18,0,0,0,96,16c0-5.86-7.12-6.82-8.78-1.19-.87,3-2.43,3.4-5,1.44A7.38,7.38,0,0,0,78.37,15c-7.25,0-16.46-5.63-15.49-9.48C63.52,3,61.25.88,59.21,2.17a3.54,3.54,0,0,0-1.43,2.65c-.06,4.25-7.06,8.77-15.28,9.86-2.42.32-4.83,1.1-5.35,1.73-1.6,1.93-3.06,1.31-4.67-2-1.11-2.27-2.15-3.21-3.75-3.4-4.66-.54-6.64,5.09-2.83,8.08,2.4,1.89,2.71,3.93.77,5-.73.41-2.71,3.3-4.41,6.43a24.55,24.55,0,0,1-6.64,8.26c-3.21,2.32-3.76,2.46-5.61,1.48-2.71-1.46-4.87-.57-4.53,1.85.19,1.33.92,2,2.47,2.15s2.57,1.08,3.59,3.36c1.47,3.31,1.66,5.92,1.19,16.53l-.3,6.72-2.92.28a9.35,9.35,0,0,0-4,1.15c-1.49,1.24-1.3,4.87.34,6.69,1.83,2,4.08,1.94,6.23-.21,1.88-1.88,4.13-1.63,4.13.45,0,.7,1.88,3.34,4.16,5.87,4.76,5.25,6.37,8,7.2,12.46.47,2.47.33,3.12-.68,3.12-1.69,0-2.54,2.44-1.35,3.88,1.43,1.72,4.2,1.41,4.71-.54.9-3.46,10.28-3.23,16.79.4a16.67,16.67,0,0,0,6.12,2.13c2.85,0,4.93,2.13,3.49,3.56-1.27,1.27-1.25,5.07,0,6.35,1.8,1.79,5.55,1.19,7.07-1.13Zm-17.73-16a31.78,31.78,0,0,0-9.77-.89l-5.58.34-.51-3.87a27.73,27.73,0,0,0-3.29-8.49c-3.72-6.19-4.07-7.3-2.71-8.66.64-.65,3.82-1.38,7.18-1.66,5.8-.49,13.76-3.44,17.94-6.65,1.53-1.18,1.53-1.3.07-3.53a16.32,16.32,0,0,1-2-5.39c-.44-2.73-.81-3.1-3.2-3.34-4.28-.41-12.55,2.1-18,5.47-6.68,4.12-7.49,3.58-8.85-5.94-.57-4-1.61-8.37-2.31-9.73-1.67-3.23-1.7-3.13,1.45-4.72,1.51-.76,5.09-3.88,8-6.95,6.65-7.08,7.2-6.89,11.69,4C37.66,43.13,45.5,52,47.29,52c.53,0,1.88-1.09,3-2.41a14.38,14.38,0,0,1,4.56-3.46c1.4-.58,2.54-1.43,2.54-1.88,0-1.14-4.79-9.92-6.55-12a35.58,35.58,0,0,0-4.62-4.12c-6.34-4.82-6-6.9,1.48-10.09a40.9,40.9,0,0,0,8.82-5.26l3.49-3,2.68,2.58c2.52,2.42,10.37,6.88,12.11,6.88,1.45,0,3.63,3.09,3.11,4.43-.27.72-2.65,3.18-5.28,5.47-4.33,3.76-8.34,9.58-9.68,14-.41,1.35.21,2.06,3.08,3.59a14.8,14.8,0,0,1,4.88,4l1.29,2.13L76.57,49c3.22-2.89,5.25-5.78,7.73-11s3.77-7,5-7c.93,0,4.32,2.72,7.83,6.29s6.82,6.3,7.58,6.3c1.7,0,1.69.2-.3,5.88a31,31,0,0,0-1.66,8.13c0,4.69-1.31,7.82-3.18,7.82-.84,0-3.58-1.33-6.11-3-5.15-3.31-8.32-4.39-15.17-5.13l-4.7-.52-.54,3.34a14.23,14.23,0,0,1-2.32,5.61C69,68,69,68.07,70.51,69.24c3.93,3,11.94,6.26,16.68,6.72,10.51,1,11.1,1.78,6.76,8.82A40.4,40.4,0,0,0,89.85,94l-1.14,4.44-5-.18a40.68,40.68,0,0,0-9.89,1.12c-6.26,1.66-7.62.85-6.88-4.14,1.28-8.6,1.45-15.2.51-19.64l-1-4.75H54.17l-.84,2.94c-1.71,6-1.9,11.26-.59,16.2,1.71,6.46,1.63,8.74-.34,9.8a6.81,6.81,0,0,1-1.89.79Zm19.1-35.83c4.7-4.39,5.67-5.75,5.67-8a4.21,4.21,0,0,0-2-4c-2.2-1.45-4.21-1-7,1.46-1.8,1.61-1.83,1.61-3.57-.13C54.7,49.3,49,51,49,55.64c0,.92,2.23,3.79,5,6.49s5,5.25,5,5.74.09.91.21.91S62,66.4,65.15,63.49Z" style="fill:#5d234b"/><path d="M168.27,58.86a31,31,0,0,1-9.7,1.58q-10.29,0-15.51-5.49a18.92,18.92,0,0,1-5.23-13.58,20.28,20.28,0,0,1,5.68-14.28Q149.2,21,159.27,21a27,27,0,0,1,6.89.85l-.73,4.86a34.92,34.92,0,0,0-7.8-1.17q-7.08,0-10.85,4.29A15.57,15.57,0,0,0,143,40.46a16.2,16.2,0,0,0,4.32,11.19c2.89,3.21,6.95,4.81,12.21,4.81a31.73,31.73,0,0,0,4.3-.44,44.8,44.8,0,0,1-.49-7.09,53.73,53.73,0,0,0-.41-6.65h5.33q-.24,3.87-.24,8.17Q168,52.3,168.27,58.86Z" style="fill:#5d234b"/><path d="M198,59.65l-4.6.18a11.75,11.75,0,0,1-.35-2.73h-.29q-3.6,3.28-9.81,3.28a9,9,0,0,1-5.81-2,6.86,6.86,0,0,1-2.43-5.64,8.5,8.5,0,0,1,3.81-7.25q3.81-2.75,14.15-2.89a12.87,12.87,0,0,0,.09-1.61c0-2.4-.64-4-1.92-4.81a11.17,11.17,0,0,0-5.81-1.2A36.4,36.4,0,0,0,176,36.15l.5-4a36.78,36.78,0,0,1,10.11-1.26c3.47,0,6.16.72,8,2.16s2.85,3.88,2.85,7.33c0,.92,0,2.59-.14,5s-.13,4-.13,4.82A51.79,51.79,0,0,0,198,59.65ZM192.85,54q-.15-4.45-.15-8a32.32,32.32,0,0,0-8.38.82c-3.2,1-4.8,2.84-4.8,5.6s1.87,4,5.62,4A11.64,11.64,0,0,0,192.85,54Z" style="fill:#5d234b"/><path d="M221.53,55.61l-.35,3.81a12.84,12.84,0,0,1-4.37.85c-3.51,0-5.92-.9-7.2-2.68s-1.94-5-1.94-9.6c0-3,0-6.88.06-11.69q-1.64,0-4.83.18l.17-4.25c1.86.12,3.52.17,5,.17q0-1.75.3-8.34l4.6-.47c-.34,4.1-.5,7-.5,8.81,1.91,0,4.72-.09,8.44-.29l-.21,4.37q-5.28-.18-8.47-.18-.06,4.43-.06,10,0,6,1.28,8t4.73,1.94A14.49,14.49,0,0,0,221.53,55.61Z" style="fill:#5d234b"/><path d="M251.82,59.65h-5.33q.64-7.71.65-16.58c0-3.17-.6-5.3-1.78-6.4a6.86,6.86,0,0,0-4.9-1.66,13.11,13.11,0,0,0-8.24,3q0,16,.24,21.62H227.3q.27-7.74.26-21.85a172.18,172.18,0,0,0-.84-19.37l5.56-.29q-.22,8.92-.23,16.58h.17a14.29,14.29,0,0,1,9.64-3.87A11.2,11.2,0,0,1,249.19,33c1.75,1.46,2.63,4,2.63,7.67,0,.37,0,1.09-.06,2.18s0,2,0,2.85Q251.71,50,251.82,59.65Z" style="fill:#5d234b"/><path d="M283.52,42.45c0,.82,0,2-.12,3.4l-20.12.35a10.56,10.56,0,0,0,3.31,7.17,11.11,11.11,0,0,0,8,2.88,31.15,31.15,0,0,0,8.35-1.08l-.5,4.13a23.46,23.46,0,0,1-8.29,1.14q-7.62,0-11.62-4.16a14.05,14.05,0,0,1-4-10.13,17.24,17.24,0,0,1,3.65-11,11.86,11.86,0,0,1,9.8-4.61c3.77,0,6.63,1.11,8.6,3.34A12.52,12.52,0,0,1,283.52,42.45Zm-4.89.06q0-8.23-6.89-8.23t-8.29,8.55Z" style="fill:#5d234b"/><path d="M308,31.82l-1.31,4.66a11.5,11.5,0,0,0-4.25-.91,6.85,6.85,0,0,0-7.15,5.24q0,13.48.18,18.84h-5.19q.47-9.28.47-14.41a62.48,62.48,0,0,0-1.38-13.3l5.13-.74a32.3,32.3,0,0,1,.56,4.31h.23q3.17-4.66,7.38-4.66A18.2,18.2,0,0,1,308,31.82Z" style="fill:#5d234b"/><path d="M316.86,59.65h-5.3q.4-5.86.41-13.39a82.06,82.06,0,0,0-1-14.21l5.86-.79q-.35,6.12-.35,15Q316.45,53.3,316.86,59.65ZM318.09,23a3.79,3.79,0,0,1-1,2.59,3.44,3.44,0,0,1-2.73,1.1,3,3,0,0,1-2.33-.95,3.4,3.4,0,0,1-.83-2.3,3.65,3.65,0,0,1,1-2.55A3.57,3.57,0,0,1,315,19.84a2.86,2.86,0,0,1,2.27.95A3.3,3.3,0,0,1,318.09,23Z" style="fill:#5d234b"/><path d="M349.44,59.65h-5.33q.64-7.71.64-16.82c0-3-.61-5.06-1.83-6.16A7.5,7.5,0,0,0,337.69,35,11.54,11.54,0,0,0,330,38q0,10,.11,21.62H324.8q.49-10,.5-14.41A67.56,67.56,0,0,0,324,31.94l5.16-.74.55,3.58H330a13.61,13.61,0,0,1,9.28-3.93q4.88,0,7.53,2.16t2.67,7.66q0,.55-.06,2.19c0,1.1-.06,1.83-.06,2.2Q349.32,50,349.44,59.65Z" style="fill:#5d234b"/><path d="M384.65,28.13l-.46,4q-5.46,0-6,1.76v.29a8,8,0,0,1,1.88,5.22,10.18,10.18,0,0,1-3,7.54q-3,3-9.27,3a13.5,13.5,0,0,1-4.42-.58,3,3,0,0,0-1.44,2.55,2.42,2.42,0,0,0,1.7,2.49c1.44.54,4.46.82,9.05.82q11.13,0,11.14,7.38a10.7,10.7,0,0,1-4.34,8.73q-4.34,3.47-11.22,3.46-7.06,0-10.06-2.57a7.81,7.81,0,0,1-3-6.16,8.7,8.7,0,0,1,1.48-5.28,6.15,6.15,0,0,1,3.68-2.46v-.26c-1.54-.74-2.32-2.17-2.32-4.28q0-2.86,2.93-5v-.23a8.82,8.82,0,0,1-3-2.58,7.18,7.18,0,0,1-1.4-4.51,10,10,0,0,1,3.07-7.59c2.06-2,5-2.93,8.91-2.93a14,14,0,0,1,7.5,1.73h.32q.94-5,4.92-4.95A9.71,9.71,0,0,1,384.65,28.13ZM379.41,64.6a4.08,4.08,0,0,0-2-3.88c-1.33-.75-3.85-1.13-7.54-1.13a60,60,0,0,1-6.86-.35q-3.57,1.73-3.57,5.07,0,7.14,9.38,7.15a13.76,13.76,0,0,0,7.74-1.91A5.73,5.73,0,0,0,379.41,64.6Zm-4.07-24a6.09,6.09,0,0,0-2-4.94A7.77,7.77,0,0,0,368.13,34a7.51,7.51,0,0,0-4.95,1.65,5.77,5.77,0,0,0-2,4.7,6,6,0,0,0,2,4.87,8,8,0,0,0,5.23,1.67,7.44,7.44,0,0,0,4.91-1.63A5.62,5.62,0,0,0,375.34,40.64Z" style="fill:#5d234b"/><path d="M419,18.08,418.11,22a14.07,14.07,0,0,0-3.51-.44A3.6,3.6,0,0,0,411,23.63c-.64,1.42-.95,4.34-.95,8.77,1.93,0,4.64-.09,8.11-.29l-.17,4.37Q412,36.3,410,36.3q0,13.34.35,23.35H405.1q.42-9.75.41-23.35-1.78,0-6.24.18l.21-4.31c2.69.16,4.71.23,6,.23q0-7.75,2.17-11.29c1.45-2.35,3.75-3.53,6.92-3.53A20.62,20.62,0,0,1,419,18.08Z" style="fill:#5d234b"/><path d="M449.58,44.89q0,7.5-4.31,11.7a14,14,0,0,1-10.14,4.2,13.11,13.11,0,0,1-9.36-3.72q-3.9-3.72-3.91-10.49,0-7.55,4.32-11.8a14,14,0,0,1,10.15-4.25,13,13,0,0,1,9.35,3.76Q449.58,38.05,449.58,44.89Zm-5.07,1a14.66,14.66,0,0,0-2.3-8.13,7.87,7.87,0,0,0-13-.19,13.69,13.69,0,0,0-2.27,7.82,14.68,14.68,0,0,0,2.3,8.15,7.39,7.39,0,0,0,6.58,3.54,7.32,7.32,0,0,0,6.47-3.38A13.72,13.72,0,0,0,444.51,45.91Z" style="fill:#5d234b"/><path d="M474,31.82l-1.32,4.66a11.46,11.46,0,0,0-4.25-.91,6.86,6.86,0,0,0-7.15,5.24q0,13.48.18,18.84h-5.19q.48-9.28.47-14.41a63.14,63.14,0,0,0-1.37-13.3l5.12-.74a32.3,32.3,0,0,1,.56,4.31h.23q3.17-4.66,7.39-4.66A18.26,18.26,0,0,1,474,31.82Z" style="fill:#5d234b"/><path d="M539.61,21.51q0,2.13-6.33,19.16t-6.33,19h-3.81q0-2.58-4.6-14.94-5-13.39-5.68-17.26h-.38q-.58,4.11-5,17.58-4.17,12.63-4.16,14.62h-3.81q0-3-6.2-20t-6.19-18.12h5.56q0,1.2,4.44,15.17t4.44,17.11h.32q0-3.32,4.51-17t4.52-15.27H516q0,1.9,4.69,16.24t4.69,16h.32q0-2.86,4.26-16.24t4.27-16Z" style="fill:#5d234b"/><path d="M568.81,44.89q0,7.5-4.3,11.7a14,14,0,0,1-10.14,4.2A13.11,13.11,0,0,1,545,57.07q-3.91-3.72-3.91-10.49,0-7.55,4.32-11.8a14,14,0,0,1,10.15-4.25,13,13,0,0,1,9.35,3.76Q568.82,38.05,568.81,44.89Zm-5.06,1a14.66,14.66,0,0,0-2.3-8.13,7.87,7.87,0,0,0-13-.19,13.69,13.69,0,0,0-2.27,7.82,14.68,14.68,0,0,0,2.3,8.15,7.88,7.88,0,0,0,13,.16A13.8,13.8,0,0,0,563.75,45.91Z" style="fill:#5d234b"/><path d="M612.38,42.69c0-3.13-.54-5.19-1.63-6.2S607.89,35,605.41,35q-3.13,0-6.48,3.08c-.08,2.38-.12,4.72-.12,7q0,4.89.18,14.59h-5.33q.65-8.35.64-17c0-3.13-.54-5.19-1.62-6.2S589.86,35,587.48,35a9.79,9.79,0,0,0-6.86,3.08q0,9.28.12,21.59h-5.33q.55-10,.55-14.41a67,67,0,0,0-1.32-13.3l5.16-.74.53,3.55h.29a11.61,11.61,0,0,1,8.47-3.9q6.95,0,8.93,3.9h.33q4.42-3.9,8.73-3.9,4.92,0,7.44,2.17c1.68,1.45,2.52,4,2.52,7.65q0,.55-.06,2.19c0,1.1-.06,1.83-.06,2.2q0,4.89.12,14.59h-5.33Q612.37,52,612.38,42.69Z" style="fill:#5d234b"/><path d="M646.72,59.65l-4.6.18a11.27,11.27,0,0,1-.36-2.73h-.29q-3.6,3.28-9.81,3.28a8.93,8.93,0,0,1-5.8-2,6.84,6.84,0,0,1-2.44-5.64,8.5,8.5,0,0,1,3.81-7.25q3.81-2.75,14.15-2.89a12.87,12.87,0,0,0,.09-1.61c0-2.4-.64-4-1.92-4.81a11.17,11.17,0,0,0-5.81-1.2,36.4,36.4,0,0,0-9.06,1.14l.5-4a36.78,36.78,0,0,1,10.11-1.26c3.48,0,6.16.72,8.06,2.16s2.84,3.88,2.84,7.33c0,.92-.05,2.59-.13,5s-.14,4-.14,4.82A50.87,50.87,0,0,0,646.72,59.65ZM641.53,54q-.15-4.45-.15-8a32.32,32.32,0,0,0-8.38.82c-3.2,1-4.8,2.84-4.8,5.6s1.87,4,5.62,4A11.62,11.62,0,0,0,641.53,54Z" style="fill:#5d234b"/><path d="M679,59.65h-5.33q.65-7.71.64-16.82c0-3-.61-5.06-1.83-6.16A7.5,7.5,0,0,0,667.22,35a11.54,11.54,0,0,0-7.67,3q0,10,.11,21.62h-5.33q.49-10,.5-14.41a67.56,67.56,0,0,0-1.29-13.3l5.16-.74.55,3.58h.24a13.64,13.64,0,0,1,9.29-3.93q4.86,0,7.53,2.16T679,40.67q0,.55-.06,2.19c0,1.1-.06,1.83-.06,2.2Q678.85,50,679,59.65Z" style="fill:#5d234b"/><path d="M140.11,90.19A3.15,3.15,0,0,1,138.67,93a6.91,6.91,0,0,1-3.86.94l-.53,0c0,1.21.05,2.67.14,4.38h-1.6c.08-1.57.13-3.47.13-5.68,0-1.9,0-3.61-.13-5.13H134l1.09,0,1.53,0a4,4,0,0,1,2.54.73A2.37,2.37,0,0,1,140.11,90.19Zm-1.39.48q0-2.13-2.91-2.13a12,12,0,0,0-1.6.12c0,.91.06,2.31.06,4.22l.71,0C137.48,92.9,138.72,92.15,138.72,90.67Z" style="fill:#5d234b"/><path d="M146.77,90.43l-.38,1.32a3.29,3.29,0,0,0-1.2-.26,2,2,0,0,0-2,1.49c0,2.55,0,4.32.05,5.34h-1.47c.09-1.76.14-3.12.14-4.09a17.85,17.85,0,0,0-.39-3.77l1.45-.2a10,10,0,0,1,.16,1.22h.06a2.55,2.55,0,0,1,2.1-1.32A5.3,5.3,0,0,1,146.77,90.43Z" style="fill:#5d234b"/><path d="M155.36,94.13a4.43,4.43,0,0,1-1.22,3.32,4,4,0,0,1-2.87,1.19,3.74,3.74,0,0,1-2.66-1,3.92,3.92,0,0,1-1.1-3,4.46,4.46,0,0,1,1.22-3.34,4,4,0,0,1,2.88-1.2,3.65,3.65,0,0,1,2.64,1.06A4,4,0,0,1,155.36,94.13Zm-1.44.29a4.18,4.18,0,0,0-.65-2.3,2.22,2.22,0,0,0-3.69-.05,3.84,3.84,0,0,0-.65,2.21,4.19,4.19,0,0,0,.65,2.31,2.1,2.1,0,0,0,1.87,1,2,2,0,0,0,1.83-1A3.88,3.88,0,0,0,153.92,94.42Z" style="fill:#5d234b"/><path d="M164,90.43a23.57,23.57,0,0,1-1.68,3.92,22.34,22.34,0,0,0-1.68,4h-1.11A20.67,20.67,0,0,0,158,94.25a28.33,28.33,0,0,1-1.49-3.82h1.62a18.74,18.74,0,0,0,1.07,3.16,18.52,18.52,0,0,1,1.08,3.17h.08a18.05,18.05,0,0,1,1-3.05,14.22,14.22,0,0,0,1-3.28Z" style="fill:#5d234b"/><path d="M167,98.32h-1.51c.08-1.11.12-2.37.12-3.8a23.69,23.69,0,0,0-.29-4l1.66-.23c-.07,1.16-.1,2.58-.1,4.25C166.83,95.85,166.87,97.12,167,98.32Zm.34-10.38a1.11,1.11,0,0,1-.27.74,1,1,0,0,1-.77.31.84.84,0,0,1-.66-.27,1,1,0,0,1-.24-.65,1.09,1.09,0,0,1,.28-.73,1,1,0,0,1,.78-.3.82.82,0,0,1,.65.27A.91.91,0,0,1,167.29,87.94Z" style="fill:#5d234b"/><path d="M176.3,98.31l-1.24,0a4.59,4.59,0,0,1-.06-.76h-.09a3.33,3.33,0,0,1-2.59,1,3.07,3.07,0,0,1-2.51-1.14,4.23,4.23,0,0,1-.94-2.77,5,5,0,0,1,1-3.16,3.47,3.47,0,0,1,2.92-1.33,2.75,2.75,0,0,1,1.93.55h.06c0-1.37,0-2.72-.11-4l1.57-.06q-.15,2.1-.15,5.52C176.13,94.42,176.18,96.49,176.3,98.31ZM175,96.67c0-1.72,0-3.37-.14-5a2.53,2.53,0,0,0-1.67-.55,2.44,2.44,0,0,0-2.1.93,3.76,3.76,0,0,0-.7,2.34,3.4,3.4,0,0,0,.66,2.13,2.19,2.19,0,0,0,1.83.86A2.66,2.66,0,0,0,175,96.67Z" style="fill:#5d234b"/><path d="M180,98.32h-1.5c.08-1.11.12-2.37.12-3.8a23.69,23.69,0,0,0-.29-4l1.66-.23c-.07,1.16-.1,2.58-.1,4.25C179.89,95.85,179.93,97.12,180,98.32Zm.35-10.38a1.11,1.11,0,0,1-.27.74,1,1,0,0,1-.77.31.81.81,0,0,1-.66-.27,1,1,0,0,1-.24-.65,1,1,0,0,1,.28-.73,1,1,0,0,1,.78-.3.8.8,0,0,1,.64.27A.92.92,0,0,1,180.35,87.94Z" style="fill:#5d234b"/><path d="M189.23,98.32h-1.51c.12-1.46.19-3,.19-4.77a2.32,2.32,0,0,0-.52-1.74,2.12,2.12,0,0,0-1.49-.47,3.26,3.26,0,0,0-2.17.85q0,2.84,0,6.13h-1.51c.1-1.88.14-3.25.14-4.09a19.51,19.51,0,0,0-.36-3.77l1.46-.2.16,1h.06a3.88,3.88,0,0,1,2.63-1.11,3.32,3.32,0,0,1,2.14.61,2.66,2.66,0,0,1,.75,2.17c0,.1,0,.31,0,.62s0,.52,0,.62C189.2,95.11,189.21,96.48,189.23,98.32Z" style="fill:#5d234b"/><path d="M199.21,89.39l-.13,1.14c-1,0-1.6.17-1.7.5v.08a2.3,2.3,0,0,1,.53,1.48,2.92,2.92,0,0,1-.85,2.14,3.63,3.63,0,0,1-2.63.84,3.8,3.8,0,0,1-1.25-.17.86.86,0,0,0-.41.73.68.68,0,0,0,.48.7,8.75,8.75,0,0,0,2.57.23c2.1,0,3.15.7,3.15,2.09a3,3,0,0,1-1.23,2.48,5,5,0,0,1-3.18,1,4.37,4.37,0,0,1-2.85-.73,2.19,2.19,0,0,1-.85-1.74,2.47,2.47,0,0,1,.42-1.5,1.73,1.73,0,0,1,1-.7v-.07a1.21,1.21,0,0,1-.65-1.21,1.74,1.74,0,0,1,.83-1.43v-.07a2.26,2.26,0,0,1-.84-.73,2,2,0,0,1-.4-1.28,2.85,2.85,0,0,1,.87-2.15,3.53,3.53,0,0,1,2.52-.83,4,4,0,0,1,2.13.49h.09c.18-.93.64-1.4,1.39-1.4A2.64,2.64,0,0,1,199.21,89.39Zm-1.48,10.33a1.15,1.15,0,0,0-.57-1.1A4.94,4.94,0,0,0,195,98.3a16.4,16.4,0,0,1-1.94-.1,1.56,1.56,0,0,0-1,1.44c0,1.35.89,2,2.66,2a3.94,3.94,0,0,0,2.2-.54A1.62,1.62,0,0,0,197.73,99.72Zm-1.16-6.79a1.72,1.72,0,0,0-.58-1.4,2.19,2.19,0,0,0-1.46-.48,2.11,2.11,0,0,0-1.4.46,1.65,1.65,0,0,0-.57,1.34,1.68,1.68,0,0,0,.58,1.38,2.28,2.28,0,0,0,1.48.47,2.15,2.15,0,0,0,1.39-.46A1.59,1.59,0,0,0,196.57,92.93Z" style="fill:#5d234b"/><path d="M211.3,98.32h-1.51c.12-1.46.18-3,.18-4.7a2.48,2.48,0,0,0-.5-1.81,1.94,1.94,0,0,0-1.39-.47,3.73,3.73,0,0,0-2.34.85c0,3,0,5.06.07,6.13h-1.46q.08-2.19.07-6.2a48.27,48.27,0,0,0-.24-5.48l1.58-.08c0,1.68-.07,3.25-.07,4.69h.05a4,4,0,0,1,2.74-1.09,3.12,3.12,0,0,1,2.07.62A2.67,2.67,0,0,1,211.3,93c0,.1,0,.31,0,.62s0,.57,0,.8C211.26,95.17,211.27,96.48,211.3,98.32Z" style="fill:#5d234b"/><path d="M221.05,94.13a4.43,4.43,0,0,1-1.22,3.32A4,4,0,0,1,217,98.64a3.7,3.7,0,0,1-2.65-1,3.93,3.93,0,0,1-1.11-3,4.46,4.46,0,0,1,1.22-3.34,4,4,0,0,1,2.88-1.2A3.68,3.68,0,0,1,220,91.13,4,4,0,0,1,221.05,94.13Zm-1.44.29a4.1,4.1,0,0,0-.65-2.3,2.22,2.22,0,0,0-3.69-.05,3.83,3.83,0,0,0-.64,2.21,4.11,4.11,0,0,0,.65,2.31,2.24,2.24,0,0,0,3.7,0A4,4,0,0,0,219.61,94.42Z" style="fill:#5d234b"/><path d="M233.39,93.51a2.4,2.4,0,0,0-.46-1.75,2.15,2.15,0,0,0-1.51-.43,2.79,2.79,0,0,0-1.84.87c0,.67,0,1.34,0,2,0,.93,0,2.3,0,4.14h-1.51c.12-1.58.18-3.18.18-4.81a2.4,2.4,0,0,0-.46-1.75,2.1,2.1,0,0,0-1.47-.43,2.8,2.8,0,0,0-2,.87c0,1.75,0,3.79,0,6.12h-1.51c.1-1.88.15-3.25.15-4.09a19,19,0,0,0-.37-3.77l1.46-.2.15,1h.08a3.31,3.31,0,0,1,2.4-1.1c1.32,0,2.16.37,2.54,1.1h.09a3.8,3.8,0,0,1,2.47-1.1,3.16,3.16,0,0,1,2.11.61,2.73,2.73,0,0,1,.71,2.17c0,.1,0,.31,0,.62s0,.52,0,.62c0,.93,0,2.3,0,4.14H233.2C233.33,96.87,233.39,95.27,233.39,93.51Z" style="fill:#5d234b"/><path d="M243.69,93.44c0,.24,0,.56,0,1l-5.7.1a3,3,0,0,0,.94,2,3.15,3.15,0,0,0,2.26.81,9.05,9.05,0,0,0,2.37-.3l-.14,1.17a6.79,6.79,0,0,1-2.35.32,4.33,4.33,0,0,1-3.29-1.18,4,4,0,0,1-1.14-2.87,4.87,4.87,0,0,1,1-3.12,3.35,3.35,0,0,1,2.77-1.3,3.09,3.09,0,0,1,2.44.94A3.52,3.52,0,0,1,243.69,93.44Zm-1.38,0c0-1.55-.65-2.33-1.95-2.33s-2.11.81-2.35,2.42Z" style="fill:#5d234b"/><path d="M247.21,98.32h-1.59c.1-1.83.15-3.89.15-6.2a50.78,50.78,0,0,0-.24-5.48l1.68-.08c-.1,1.5-.15,3.36-.15,5.56S247.11,96.46,247.21,98.32Z" style="fill:#5d234b"/><path d="M256.31,93.44c0,.24,0,.56,0,1l-5.7.1a3,3,0,0,0,.93,2,3.17,3.17,0,0,0,2.27.81,9.05,9.05,0,0,0,2.37-.3L256,98.22a6.83,6.83,0,0,1-2.35.32,4.37,4.37,0,0,1-3.3-1.18,4,4,0,0,1-1.13-2.87,4.87,4.87,0,0,1,1-3.12,3.33,3.33,0,0,1,2.77-1.3,3.09,3.09,0,0,1,2.44.94A3.56,3.56,0,0,1,256.31,93.44Zm-1.38,0c0-1.55-.65-2.33-2-2.33s-2.12.81-2.35,2.42Z" style="fill:#5d234b"/><path d="M263.5,96.07c0,1.61-1,2.42-3.1,2.42a11.46,11.46,0,0,1-2.55-.27L258.1,97a6.63,6.63,0,0,0,2.35.41c1.2,0,1.8-.34,1.8-1a.93.93,0,0,0-.4-.79,6,6,0,0,0-1.33-.66,6.53,6.53,0,0,1-1.71-.9,1.92,1.92,0,0,1-.78-1.54,2.17,2.17,0,0,1,.71-1.62,3.08,3.08,0,0,1,2.18-.68,8.86,8.86,0,0,1,2.29.24l-.26,1.2a5.54,5.54,0,0,0-2.07-.36c-1.07,0-1.6.31-1.6.92a.91.91,0,0,0,.36.75,6.34,6.34,0,0,0,1.39.7,6.55,6.55,0,0,1,1.66.86A2,2,0,0,1,263.5,96.07Z" style="fill:#5d234b"/><path d="M270.62,96.07c0,1.61-1,2.42-3.09,2.42a11.49,11.49,0,0,1-2.56-.27l.26-1.22a6.61,6.61,0,0,0,2.34.41c1.2,0,1.81-.34,1.81-1a1,1,0,0,0-.4-.79,6.11,6.11,0,0,0-1.34-.66,6.88,6.88,0,0,1-1.71-.9,1.92,1.92,0,0,1-.78-1.54,2.14,2.14,0,0,1,.72-1.62,3.05,3.05,0,0,1,2.17-.68,8.81,8.81,0,0,1,2.29.24l-.26,1.2a5.47,5.47,0,0,0-2.07-.36c-1.06,0-1.59.31-1.59.92a.9.9,0,0,0,.35.75,6.48,6.48,0,0,0,1.4.7,6.92,6.92,0,0,1,1.66.86A2,2,0,0,1,270.62,96.07Z" style="fill:#5d234b"/><path d="M287.72,90.43a21.31,21.31,0,0,1-1.42,3.91,20.2,20.2,0,0,0-1.43,4h-1.12a13.48,13.48,0,0,0-.84-2.42c-.69-1.72-1.18-3.06-1.46-4h-.07c-.27.93-.72,2.28-1.36,4a14.45,14.45,0,0,0-.77,2.41h-1.13a24.45,24.45,0,0,0-1.35-4,28.47,28.47,0,0,1-1.34-3.9h1.48a18.69,18.69,0,0,0,1,3.16,17.64,17.64,0,0,1,1,3.17h.09a13.32,13.32,0,0,1,1-3.29,15.85,15.85,0,0,0,1-3h1.41a20,20,0,0,0,1,3.18,21.43,21.43,0,0,1,1,3.15h.08a16.21,16.21,0,0,1,.9-3.1,14.63,14.63,0,0,0,.9-3.23Z" style="fill:#5d234b"/><path d="M296.76,94.13a4.43,4.43,0,0,1-1.22,3.32,4,4,0,0,1-2.87,1.19,3.72,3.72,0,0,1-2.65-1,3.93,3.93,0,0,1-1.11-3,4.5,4.5,0,0,1,1.22-3.34,4,4,0,0,1,2.88-1.2,3.68,3.68,0,0,1,2.65,1.06A4,4,0,0,1,296.76,94.13Zm-1.43.29a4.1,4.1,0,0,0-.66-2.3,2.22,2.22,0,0,0-3.69-.05,3.83,3.83,0,0,0-.64,2.21,4.11,4.11,0,0,0,.65,2.31,2.24,2.24,0,0,0,3.7,0A4,4,0,0,0,295.33,94.42Z" style="fill:#5d234b"/><path d="M309.1,93.51a2.4,2.4,0,0,0-.46-1.75,2.15,2.15,0,0,0-1.51-.43,2.81,2.81,0,0,0-1.84.87c0,.67,0,1.34,0,2,0,.93,0,2.3.05,4.14H303.8c.12-1.58.18-3.18.18-4.81a2.4,2.4,0,0,0-.46-1.75,2.08,2.08,0,0,0-1.47-.43,2.76,2.76,0,0,0-1.94.87q0,2.63,0,6.12h-1.51c.1-1.88.16-3.25.16-4.09a19,19,0,0,0-.38-3.77l1.46-.2.15,1h.09a3.31,3.31,0,0,1,2.4-1.1c1.31,0,2.15.37,2.53,1.1h.09a3.8,3.8,0,0,1,2.47-1.1,3.16,3.16,0,0,1,2.11.61,2.73,2.73,0,0,1,.72,2.17c0,.1,0,.31,0,.62s0,.52,0,.62c0,.93,0,2.3,0,4.14h-1.52C309,96.87,309.1,95.27,309.1,93.51Z" style="fill:#5d234b"/><path d="M318.83,98.32l-1.3.05a3.09,3.09,0,0,1-.1-.78h-.08a4,4,0,0,1-2.78.93,2.5,2.5,0,0,1-1.65-.56,1.92,1.92,0,0,1-.69-1.59,2.42,2.42,0,0,1,1.08-2.06,7.52,7.52,0,0,1,4-.82,3,3,0,0,0,0-.45,1.46,1.46,0,0,0-.55-1.36,3.11,3.11,0,0,0-1.64-.34,10.11,10.11,0,0,0-2.57.32l.14-1.15a10.79,10.79,0,0,1,2.87-.35,3.7,3.7,0,0,1,2.28.61,2.43,2.43,0,0,1,.8,2.08q0,.39,0,1.41c0,.69,0,1.14,0,1.37A14.56,14.56,0,0,0,318.83,98.32Zm-1.47-1.61c0-.84,0-1.6,0-2.27a9.38,9.38,0,0,0-2.37.23,1.62,1.62,0,0,0-1.36,1.59c0,.75.53,1.13,1.59,1.13A3.31,3.31,0,0,0,317.36,96.71Z" style="fill:#5d234b"/><path d="M328,98.32h-1.51q.18-2.19.18-4.77a2.32,2.32,0,0,0-.51-1.74,2.12,2.12,0,0,0-1.49-.47,3.26,3.26,0,0,0-2.17.85q0,2.84,0,6.13H321c.1-1.88.14-3.25.14-4.09a19.51,19.51,0,0,0-.36-3.77l1.46-.2.16,1h.06a3.88,3.88,0,0,1,2.63-1.11,3.32,3.32,0,0,1,2.14.61,2.66,2.66,0,0,1,.75,2.17c0,.1,0,.31,0,.62s0,.52,0,.62C327.94,95.11,328,96.48,328,98.32Z" style="fill:#5d234b"/><path d="M345.39,90.43A21.31,21.31,0,0,1,344,94.34a19.81,19.81,0,0,0-1.42,4h-1.13a13.48,13.48,0,0,0-.84-2.42c-.69-1.72-1.17-3.06-1.46-4h-.07c-.26.93-.72,2.28-1.36,4a13.89,13.89,0,0,0-.76,2.41h-1.14a25,25,0,0,0-1.34-4,27.79,27.79,0,0,1-1.35-3.9h1.48a18.2,18.2,0,0,0,1,3.16,18.1,18.1,0,0,1,1,3.17h.09a13.81,13.81,0,0,1,1-3.29,16.29,16.29,0,0,0,1-3H340a19.38,19.38,0,0,0,1,3.18,20.1,20.1,0,0,1,1,3.15h.08a16.63,16.63,0,0,1,.91-3.1,14.63,14.63,0,0,0,.9-3.23Z" style="fill:#5d234b"/><path d="M348.36,98.32h-1.5c.07-1.11.11-2.37.11-3.8a22.7,22.7,0,0,0-.29-4l1.66-.23c-.06,1.16-.1,2.58-.1,4.25C348.24,95.85,348.28,97.12,348.36,98.32Zm.35-10.38a1.07,1.07,0,0,1-.28.74,1,1,0,0,1-.77.31.84.84,0,0,1-.66-.27.94.94,0,0,1-.23-.65,1,1,0,0,1,.28-.73,1,1,0,0,1,.78-.3.81.81,0,0,1,.64.27A.92.92,0,0,1,348.71,87.94Z" style="fill:#5d234b"/><path d="M355.11,97.17l-.1,1.08a3.62,3.62,0,0,1-1.24.24,2.35,2.35,0,0,1-2-.76,4.83,4.83,0,0,1-.55-2.72c0-.84,0-2,0-3.31-.31,0-.77,0-1.37,0l.05-1.2c.52,0,1,0,1.41,0,0-.33,0-1.12.08-2.37l1.31-.13c-.1,1.16-.15,2-.15,2.5.55,0,1.34,0,2.4-.09l-.06,1.24c-1,0-1.8,0-2.4,0,0,.84,0,1.78,0,2.82a4.72,4.72,0,0,0,.36,2.27,1.5,1.5,0,0,0,1.34.55A4.21,4.21,0,0,0,355.11,97.17Z" style="fill:#5d234b"/><path d="M363.69,98.32h-1.51c.12-1.46.18-3,.18-4.7a2.43,2.43,0,0,0-.5-1.81,1.92,1.92,0,0,0-1.39-.47,3.68,3.68,0,0,0-2.33.85q0,4.53.06,6.13h-1.46q.08-2.19.08-6.2a48.27,48.27,0,0,0-.24-5.48l1.57-.08c0,1.68-.06,3.25-.06,4.69h.05a4,4,0,0,1,2.73-1.09,3.1,3.1,0,0,1,2.07.62,2.67,2.67,0,0,1,.75,2.17c0,.1,0,.31,0,.62s0,.57,0,.8C363.66,95.17,363.67,96.48,363.69,98.32Z" style="fill:#5d234b"/><path d="M374.82,96.07c0,1.61-1,2.42-3.09,2.42a11.49,11.49,0,0,1-2.56-.27l.26-1.22a6.61,6.61,0,0,0,2.34.41c1.2,0,1.81-.34,1.81-1a.94.94,0,0,0-.41-.79,5.77,5.77,0,0,0-1.33-.66,6.88,6.88,0,0,1-1.71-.9,1.92,1.92,0,0,1-.78-1.54,2.14,2.14,0,0,1,.72-1.62,3.05,3.05,0,0,1,2.17-.68,8.81,8.81,0,0,1,2.29.24l-.26,1.2a5.51,5.51,0,0,0-2.07-.36c-1.06,0-1.59.31-1.59.92a.9.9,0,0,0,.35.75,6.48,6.48,0,0,0,1.4.7,6.92,6.92,0,0,1,1.66.86A2,2,0,0,1,374.82,96.07Z" style="fill:#5d234b"/><path d="M383.67,98.31l-1.29,0a3.71,3.71,0,0,1-.11-.77h-.08a4,4,0,0,1-2.69.93,2.74,2.74,0,0,1-2.08-.69,4.2,4.2,0,0,1-.65-2.79c0-.2,0-.5,0-.89s0-.66,0-.81c0-.81-.05-1.77-.14-2.87l1.54-.06c-.07,1.07-.1,2-.1,2.74a10.5,10.5,0,0,0,.34,3.41,1.45,1.45,0,0,0,1.51.79,3.48,3.48,0,0,0,2.19-.66c0-3.08,0-5.15-.08-6.22l1.49-.06q-.06,1.56-.06,4.32C383.49,95.91,383.55,97.1,383.67,98.31Z" style="fill:#5d234b"/><path d="M393.31,94.05a5,5,0,0,1-1,3.14,3.37,3.37,0,0,1-2.85,1.35,2.67,2.67,0,0,1-2-.55h-.08c0,1.54,0,2.91.05,4.12h-1.56c.13-1.47.19-3.29.19-5.45a36.24,36.24,0,0,0-.41-6.2l1.46-.2.12.82h.08a3.26,3.26,0,0,1,2.61-.94,3,3,0,0,1,2.51,1.16A4.3,4.3,0,0,1,393.31,94.05Zm-1.48.2a3.37,3.37,0,0,0-.65-2.1,2.1,2.1,0,0,0-1.81-.88,2.48,2.48,0,0,0-2.15.9c.09,1.86.14,3.46.14,4.79a2.61,2.61,0,0,0,1.75.57,2.33,2.33,0,0,0,2-1A3.9,3.9,0,0,0,391.83,94.25Z" style="fill:#5d234b"/><path d="M402.75,94.05a5.05,5.05,0,0,1-1,3.14,3.37,3.37,0,0,1-2.85,1.35,2.67,2.67,0,0,1-2-.55h-.08c0,1.54,0,2.91,0,4.12h-1.57c.13-1.47.2-3.29.2-5.45a35.06,35.06,0,0,0-.42-6.2l1.46-.2.13.82h.08a3.25,3.25,0,0,1,2.61-.94,3,3,0,0,1,2.5,1.16A4.25,4.25,0,0,1,402.75,94.05Zm-1.47.2a3.43,3.43,0,0,0-.65-2.1,2.12,2.12,0,0,0-1.82-.88,2.45,2.45,0,0,0-2.14.9c.09,1.86.13,3.46.13,4.79a2.61,2.61,0,0,0,1.75.57,2.33,2.33,0,0,0,2.05-1A4,4,0,0,0,401.28,94.25Z" style="fill:#5d234b"/><path d="M412.25,94.13A4.43,4.43,0,0,1,411,97.45a4,4,0,0,1-2.87,1.19,3.72,3.72,0,0,1-2.65-1,3.93,3.93,0,0,1-1.11-3,4.5,4.5,0,0,1,1.22-3.34,4,4,0,0,1,2.88-1.2,3.68,3.68,0,0,1,2.65,1.06A4,4,0,0,1,412.25,94.13Zm-1.44.29a4.1,4.1,0,0,0-.65-2.3,2.22,2.22,0,0,0-3.69-.05,3.83,3.83,0,0,0-.64,2.21,4.11,4.11,0,0,0,.65,2.31,2.24,2.24,0,0,0,3.7,0A4,4,0,0,0,410.81,94.42Z" style="fill:#5d234b"/><path d="M419.18,90.43l-.37,1.32a3.3,3.3,0,0,0-1.21-.26,1.94,1.94,0,0,0-2,1.49c0,2.55,0,4.32.05,5.34h-1.47c.09-1.76.13-3.12.13-4.09a17.85,17.85,0,0,0-.39-3.77l1.46-.2a9.37,9.37,0,0,1,.15,1.22h.07a2.54,2.54,0,0,1,2.09-1.32A5.25,5.25,0,0,1,419.18,90.43Z" style="fill:#5d234b"/><path d="M424.74,97.17l-.1,1.08a3.57,3.57,0,0,1-1.23.24,2.38,2.38,0,0,1-2.05-.76,4.93,4.93,0,0,1-.54-2.72c0-.84,0-2,0-3.31-.31,0-.76,0-1.37,0l.05-1.2c.53,0,1,0,1.41,0q0-.5.09-2.37l1.3-.13c-.09,1.16-.14,2-.14,2.5.54,0,1.34,0,2.39-.09l-.06,1.24c-1,0-1.79,0-2.4,0,0,.84,0,1.78,0,2.82a4.72,4.72,0,0,0,.36,2.27,1.5,1.5,0,0,0,1.34.55A4.23,4.23,0,0,0,424.74,97.17Z" style="fill:#5d234b"/><path d="M427.8,98.32h-1.5c.07-1.11.11-2.37.11-3.8a23.69,23.69,0,0,0-.29-4l1.66-.23c-.06,1.16-.1,2.58-.1,4.25C427.68,95.85,427.72,97.12,427.8,98.32Zm.35-10.38a1.07,1.07,0,0,1-.28.74,1,1,0,0,1-.77.31.84.84,0,0,1-.66-.27,1,1,0,0,1-.24-.65,1.05,1.05,0,0,1,.29-.73,1,1,0,0,1,.78-.3.81.81,0,0,1,.64.27A.92.92,0,0,1,428.15,87.94Z" style="fill:#5d234b"/><path d="M436.7,90.43A23.57,23.57,0,0,1,435,94.35a22.34,22.34,0,0,0-1.68,4h-1.11a19.94,19.94,0,0,0-1.48-4.07,27.39,27.39,0,0,1-1.48-3.82h1.61A18.27,18.27,0,0,0,432,93.59,18.52,18.52,0,0,1,433,96.76h.07a17.59,17.59,0,0,1,1-3.05,14.51,14.51,0,0,0,1-3.28Z" style="fill:#5d234b"/><path d="M445,93.44c0,.24,0,.56,0,1l-5.7.1a3,3,0,0,0,.93,2,3.17,3.17,0,0,0,2.27.81,9.05,9.05,0,0,0,2.37-.3l-.14,1.17a6.83,6.83,0,0,1-2.35.32,4.37,4.37,0,0,1-3.3-1.18,4,4,0,0,1-1.13-2.87,4.87,4.87,0,0,1,1-3.12,3.33,3.33,0,0,1,2.77-1.3,3.09,3.09,0,0,1,2.44.94A3.56,3.56,0,0,1,445,93.44Zm-1.38,0c0-1.55-.65-2.33-1.95-2.33s-2.12.81-2.35,2.42Z" style="fill:#5d234b"/><path d="M455.59,90.43l-.37,1.32a3.39,3.39,0,0,0-1.21-.26A1.94,1.94,0,0,0,452,93c0,2.55,0,4.32.05,5.34h-1.47c.08-1.76.13-3.12.13-4.09a17.85,17.85,0,0,0-.39-3.77l1.45-.2a8.3,8.3,0,0,1,.16,1.22H452a2.52,2.52,0,0,1,2.09-1.32A5.3,5.3,0,0,1,455.59,90.43Z" style="fill:#5d234b"/><path d="M463.41,93.44c0,.24,0,.56,0,1l-5.71.1a3,3,0,0,0,.94,2,3.17,3.17,0,0,0,2.27.81,8.92,8.92,0,0,0,2.36-.3l-.14,1.17a6.75,6.75,0,0,1-2.35.32,4.34,4.34,0,0,1-3.29-1.18,4,4,0,0,1-1.13-2.87,4.86,4.86,0,0,1,1-3.12,3.36,3.36,0,0,1,2.78-1.3,3,3,0,0,1,2.43.94A3.52,3.52,0,0,1,463.41,93.44Zm-1.39,0c0-1.55-.65-2.33-1.95-2.33s-2.11.81-2.35,2.42Z" style="fill:#5d234b"/><path d="M470.6,96.07c0,1.61-1,2.42-3.1,2.42a11.55,11.55,0,0,1-2.56-.27L465.2,97a6.61,6.61,0,0,0,2.34.41c1.21,0,1.81-.34,1.81-1a.93.93,0,0,0-.4-.79,6,6,0,0,0-1.33-.66,6.53,6.53,0,0,1-1.71-.9,1.92,1.92,0,0,1-.78-1.54,2.13,2.13,0,0,1,.71-1.62,3.08,3.08,0,0,1,2.18-.68,8.86,8.86,0,0,1,2.29.24l-.26,1.2a5.56,5.56,0,0,0-2.08-.36c-1.06,0-1.59.31-1.59.92a.91.91,0,0,0,.36.75,6.34,6.34,0,0,0,1.39.7,6.73,6.73,0,0,1,1.66.86A2,2,0,0,1,470.6,96.07Z" style="fill:#5d234b"/><path d="M480,94.13a4.43,4.43,0,0,1-1.22,3.32,4,4,0,0,1-2.88,1.19,3.72,3.72,0,0,1-2.65-1,3.93,3.93,0,0,1-1.11-3,4.46,4.46,0,0,1,1.23-3.34,4,4,0,0,1,2.87-1.2,3.67,3.67,0,0,1,2.65,1.06A4,4,0,0,1,480,94.13Zm-1.44.29a4.18,4.18,0,0,0-.65-2.3,2.23,2.23,0,0,0-3.7-.05,3.9,3.9,0,0,0-.64,2.21,4.19,4.19,0,0,0,.65,2.31,2.1,2.1,0,0,0,1.87,1,2.07,2.07,0,0,0,1.83-1A3.88,3.88,0,0,0,478.59,94.42Z" style="fill:#5d234b"/><path d="M488.94,98.31l-1.29,0a3.71,3.71,0,0,1-.11-.77h-.08a4,4,0,0,1-2.69.93,2.74,2.74,0,0,1-2.08-.69A4.2,4.2,0,0,1,482,95c0-.2,0-.5,0-.89s0-.66,0-.81c0-.81-.05-1.77-.14-2.87l1.54-.06c-.07,1.07-.1,2-.1,2.74a10.5,10.5,0,0,0,.34,3.41,1.45,1.45,0,0,0,1.51.79,3.48,3.48,0,0,0,2.19-.66c0-3.08,0-5.15-.08-6.22l1.49-.06q-.06,1.56-.06,4.32C488.76,95.91,488.82,97.1,488.94,98.31Z" style="fill:#5d234b"/><path d="M496.06,90.43l-.37,1.32a3.29,3.29,0,0,0-1.2-.26,2,2,0,0,0-2,1.49c0,2.55,0,4.32.05,5.34H491c.09-1.76.13-3.12.13-4.09a17.85,17.85,0,0,0-.39-3.77l1.46-.2a9.37,9.37,0,0,1,.15,1.22h.07a2.55,2.55,0,0,1,2.09-1.32A5.25,5.25,0,0,1,496.06,90.43Z" style="fill:#5d234b"/><path d="M503.11,97.05,503,98.16a3.7,3.7,0,0,1-1.8.38,4.31,4.31,0,0,1-3.29-1.19,4,4,0,0,1-1.14-2.86,4.3,4.3,0,0,1,1.2-3,4.1,4.1,0,0,1,3.16-1.28,5.14,5.14,0,0,1,1.61.2l-.22,1.3a4.94,4.94,0,0,0-1.77-.32,2.34,2.34,0,0,0-1.88.82,3.09,3.09,0,0,0-.69,2.06,3.15,3.15,0,0,0,.83,2.24,3,3,0,0,0,2.35.89A7,7,0,0,0,503.11,97.05Z" style="fill:#5d234b"/><path d="M511.56,93.44c0,.24,0,.56,0,1l-5.71.1a3,3,0,0,0,.94,2,3.17,3.17,0,0,0,2.27.81,8.92,8.92,0,0,0,2.36-.3l-.14,1.17a6.75,6.75,0,0,1-2.35.32,4.36,4.36,0,0,1-3.29-1.18,4,4,0,0,1-1.13-2.87,4.86,4.86,0,0,1,1-3.12,3.36,3.36,0,0,1,2.78-1.3,3.09,3.09,0,0,1,2.44.94A3.56,3.56,0,0,1,511.56,93.44Zm-1.39,0c0-1.55-.65-2.33-1.95-2.33s-2.11.81-2.34,2.42Z" style="fill:#5d234b"/><path d="M518.75,96.07c0,1.61-1,2.42-3.1,2.42a11.46,11.46,0,0,1-2.55-.27l.25-1.22a6.63,6.63,0,0,0,2.35.41c1.2,0,1.8-.34,1.8-1a.93.93,0,0,0-.4-.79,6,6,0,0,0-1.33-.66,6.53,6.53,0,0,1-1.71-.9,1.92,1.92,0,0,1-.78-1.54,2.17,2.17,0,0,1,.71-1.62,3.08,3.08,0,0,1,2.18-.68,8.86,8.86,0,0,1,2.29.24l-.26,1.2a5.54,5.54,0,0,0-2.07-.36c-1.07,0-1.6.31-1.6.92a.91.91,0,0,0,.36.75,6.34,6.34,0,0,0,1.39.7,6.55,6.55,0,0,1,1.66.86A2,2,0,0,1,518.75,96.07Z" style="fill:#5d234b"/><path d="M530.52,98.32l-1.3.05a3.09,3.09,0,0,1-.1-.78H529a4,4,0,0,1-2.78.93,2.49,2.49,0,0,1-1.64-.56,1.92,1.92,0,0,1-.69-1.59A2.42,2.42,0,0,1,525,94.31a7.52,7.52,0,0,1,4-.82,3.1,3.1,0,0,0,0-.45,1.48,1.48,0,0,0-.54-1.36,3.13,3.13,0,0,0-1.65-.34,10,10,0,0,0-2.56.32l.14-1.15a10.71,10.71,0,0,1,2.86-.35,3.66,3.66,0,0,1,2.28.61,2.43,2.43,0,0,1,.81,2.08c0,.26,0,.73,0,1.41s0,1.14,0,1.37A14.56,14.56,0,0,0,530.52,98.32Zm-1.47-1.61c0-.84,0-1.6,0-2.27a9.38,9.38,0,0,0-2.37.23,1.63,1.63,0,0,0-1.37,1.59c0,.75.54,1.13,1.6,1.13A3.31,3.31,0,0,0,529.05,96.71Z" style="fill:#5d234b"/><path d="M539.66,98.32h-1.51q.18-2.19.18-4.77a2.27,2.27,0,0,0-.52-1.74,2.09,2.09,0,0,0-1.48-.47,3.24,3.24,0,0,0-2.17.85q0,2.84,0,6.13h-1.51c.09-1.88.14-3.25.14-4.09a18.76,18.76,0,0,0-.37-3.77l1.47-.2.15,1h.07a3.88,3.88,0,0,1,2.63-1.11,3.28,3.28,0,0,1,2.13.61,2.63,2.63,0,0,1,.76,2.17c0,.1,0,.31,0,.62s0,.52,0,.62C539.63,95.11,539.64,96.48,539.66,98.32Z" style="fill:#5d234b"/><path d="M549,98.31l-1.24,0a4.59,4.59,0,0,1-.06-.76h-.09a3.34,3.34,0,0,1-2.59,1,3.09,3.09,0,0,1-2.52-1.14,4.27,4.27,0,0,1-.93-2.77,5,5,0,0,1,1-3.16,3.47,3.47,0,0,1,2.92-1.33,2.75,2.75,0,0,1,1.93.55h.06c0-1.37,0-2.72-.11-4l1.57-.06c-.1,1.4-.16,3.24-.16,5.52S548.87,96.49,549,98.31Zm-1.34-1.64c0-1.72,0-3.37-.14-5a2.53,2.53,0,0,0-1.67-.55,2.48,2.48,0,0,0-2.11.93,3.82,3.82,0,0,0-.69,2.34,3.4,3.4,0,0,0,.66,2.13,2.19,2.19,0,0,0,1.83.86A2.66,2.66,0,0,0,547.65,96.67Z" style="fill:#5d234b"/><path d="M561.11,98.32l-1.3.05a3.09,3.09,0,0,1-.1-.78h-.09a4,4,0,0,1-2.78.93A2.49,2.49,0,0,1,555.2,98a1.92,1.92,0,0,1-.69-1.59,2.42,2.42,0,0,1,1.08-2.06,7.49,7.49,0,0,1,4-.82c0-.13,0-.28,0-.45a1.48,1.48,0,0,0-.54-1.36,3.13,3.13,0,0,0-1.65-.34,10,10,0,0,0-2.56.32l.14-1.15a10.71,10.71,0,0,1,2.86-.35,3.66,3.66,0,0,1,2.28.61,2.43,2.43,0,0,1,.81,2.08c0,.26,0,.73,0,1.41s0,1.14,0,1.37A14.51,14.51,0,0,0,561.11,98.32Zm-1.47-1.61c0-.84,0-1.6,0-2.27a9.53,9.53,0,0,0-2.38.23,1.63,1.63,0,0,0-1.36,1.59c0,.75.53,1.13,1.6,1.13A3.31,3.31,0,0,0,559.64,96.71Z" style="fill:#5d234b"/><path d="M572.94,97.05l-.09,1.11a3.65,3.65,0,0,1-1.8.38,4.29,4.29,0,0,1-3.28-1.19,4,4,0,0,1-1.14-2.86,4.33,4.33,0,0,1,1.19-3A4.12,4.12,0,0,1,571,90.16a5.23,5.23,0,0,1,1.61.2l-.23,1.3a4.94,4.94,0,0,0-1.77-.32,2.32,2.32,0,0,0-1.87.82,3,3,0,0,0-.7,2.06,3.2,3.2,0,0,0,.83,2.24,3,3,0,0,0,2.35.89A7.08,7.08,0,0,0,572.94,97.05Z" style="fill:#5d234b"/><path d="M580.81,98.32l-1.3.05a3.09,3.09,0,0,1-.1-.78h-.08a4,4,0,0,1-2.78.93A2.5,2.5,0,0,1,574.9,98a1.92,1.92,0,0,1-.68-1.59,2.41,2.41,0,0,1,1.07-2.06,7.52,7.52,0,0,1,4-.82,3,3,0,0,0,0-.45,1.46,1.46,0,0,0-.55-1.36,3.11,3.11,0,0,0-1.64-.34,10.11,10.11,0,0,0-2.57.32l.14-1.15a10.79,10.79,0,0,1,2.87-.35,3.7,3.7,0,0,1,2.28.61,2.43,2.43,0,0,1,.8,2.08q0,.39,0,1.41c0,.69,0,1.14,0,1.37A14.56,14.56,0,0,0,580.81,98.32Zm-1.46-1.61c0-.84-.05-1.6-.05-2.27a9.38,9.38,0,0,0-2.37.23,1.62,1.62,0,0,0-1.36,1.59c0,.75.53,1.13,1.59,1.13A3.35,3.35,0,0,0,579.35,96.71Z" style="fill:#5d234b"/><path d="M587.94,90.43l-.38,1.32a3.29,3.29,0,0,0-1.2-.26,2,2,0,0,0-2,1.49c0,2.55,0,4.32,0,5.34h-1.47c.09-1.76.14-3.12.14-4.09a17.85,17.85,0,0,0-.39-3.77l1.45-.2a10,10,0,0,1,.16,1.22h.06a2.55,2.55,0,0,1,2.1-1.32A5.3,5.3,0,0,1,587.94,90.43Z" style="fill:#5d234b"/><path d="M590.45,98.32H589c.08-1.11.12-2.37.12-3.8a23.69,23.69,0,0,0-.29-4l1.66-.23c-.07,1.16-.1,2.58-.1,4.25C590.34,95.85,590.37,97.12,590.45,98.32Zm.35-10.38a1.11,1.11,0,0,1-.27.74,1,1,0,0,1-.78.31.8.8,0,0,1-.65-.27,1,1,0,0,1-.24-.65,1,1,0,0,1,.28-.73,1,1,0,0,1,.78-.3.8.8,0,0,1,.64.27A.92.92,0,0,1,590.8,87.94Z" style="fill:#5d234b"/><path d="M599.68,98.32h-1.51q.18-2.19.18-4.77a2.27,2.27,0,0,0-.52-1.74,2.09,2.09,0,0,0-1.48-.47,3.26,3.26,0,0,0-2.17.85q0,2.84,0,6.13H592.7c.09-1.88.14-3.25.14-4.09a19.51,19.51,0,0,0-.36-3.77l1.46-.2.16,1h.06a3.88,3.88,0,0,1,2.63-1.11,3.32,3.32,0,0,1,2.14.61,2.66,2.66,0,0,1,.75,2.17c0,.1,0,.31,0,.62s0,.52,0,.62C599.65,95.11,599.66,96.48,599.68,98.32Z" style="fill:#5d234b"/><path d="M609.66,89.39l-.13,1.14c-1,0-1.6.17-1.7.5v.08a2.3,2.3,0,0,1,.53,1.48,2.92,2.92,0,0,1-.85,2.14,3.63,3.63,0,0,1-2.63.84,3.91,3.91,0,0,1-1.26-.17.88.88,0,0,0-.4.73.68.68,0,0,0,.48.7,8.71,8.71,0,0,0,2.57.23c2.1,0,3.15.7,3.15,2.09a3,3,0,0,1-1.23,2.48,5,5,0,0,1-3.18,1,4.37,4.37,0,0,1-2.85-.73,2.19,2.19,0,0,1-.85-1.74,2.47,2.47,0,0,1,.42-1.5,1.7,1.7,0,0,1,1-.7v-.07a1.22,1.22,0,0,1-.66-1.21,1.76,1.76,0,0,1,.83-1.43v-.07a2.31,2.31,0,0,1-.83-.73,2,2,0,0,1-.4-1.28,2.85,2.85,0,0,1,.87-2.15,3.53,3.53,0,0,1,2.52-.83,4,4,0,0,1,2.13.49h.09c.18-.93.64-1.4,1.39-1.4A2.64,2.64,0,0,1,609.66,89.39Zm-1.49,10.33a1.15,1.15,0,0,0-.57-1.1,4.85,4.85,0,0,0-2.13-.32,16.69,16.69,0,0,1-2-.1,1.56,1.56,0,0,0-1,1.44c0,1.35.89,2,2.66,2a3.9,3.9,0,0,0,2.19-.54A1.62,1.62,0,0,0,608.17,99.72ZM607,92.93a1.72,1.72,0,0,0-.58-1.4,2.19,2.19,0,0,0-1.46-.48,2.11,2.11,0,0,0-1.4.46,1.65,1.65,0,0,0-.57,1.34,1.68,1.68,0,0,0,.58,1.38,2.28,2.28,0,0,0,1.48.47,2.15,2.15,0,0,0,1.39-.46A1.62,1.62,0,0,0,607,92.93Z" style="fill:#5d234b"/><path d="M620.75,97.05l-.08,1.11a3.7,3.7,0,0,1-1.8.38,4.31,4.31,0,0,1-3.29-1.19,4,4,0,0,1-1.14-2.86,4.3,4.3,0,0,1,1.2-3,4.09,4.09,0,0,1,3.16-1.28,5.18,5.18,0,0,1,1.61.2l-.22,1.3a5,5,0,0,0-1.77-.32,2.34,2.34,0,0,0-1.88.82,3.1,3.1,0,0,0-.7,2.06,3.2,3.2,0,0,0,.83,2.24,3,3,0,0,0,2.35.89A7.08,7.08,0,0,0,620.75,97.05Z" style="fill:#5d234b"/><path d="M630,94.13a4.43,4.43,0,0,1-1.22,3.32,4,4,0,0,1-2.87,1.19,3.72,3.72,0,0,1-2.65-1,3.93,3.93,0,0,1-1.11-3,4.5,4.5,0,0,1,1.22-3.34,4,4,0,0,1,2.88-1.2,3.68,3.68,0,0,1,2.65,1.06A4,4,0,0,1,630,94.13Zm-1.43.29a4.1,4.1,0,0,0-.66-2.3,2.22,2.22,0,0,0-3.69-.05,3.83,3.83,0,0,0-.64,2.21,4.11,4.11,0,0,0,.65,2.31,2.24,2.24,0,0,0,3.7,0A4,4,0,0,0,628.54,94.42Z" style="fill:#5d234b"/><path d="M642.31,93.51a2.4,2.4,0,0,0-.46-1.75,2.15,2.15,0,0,0-1.51-.43,2.81,2.81,0,0,0-1.84.87c0,.67,0,1.34,0,2,0,.93,0,2.3,0,4.14H637c.12-1.58.18-3.18.18-4.81a2.4,2.4,0,0,0-.46-1.75,2.08,2.08,0,0,0-1.47-.43,2.76,2.76,0,0,0-1.94.87q0,2.63,0,6.12h-1.51c.1-1.88.16-3.25.16-4.09a19,19,0,0,0-.38-3.77l1.46-.2.15,1h.09a3.31,3.31,0,0,1,2.4-1.1c1.31,0,2.15.37,2.53,1.1h.09a3.8,3.8,0,0,1,2.47-1.1,3.16,3.16,0,0,1,2.11.61,2.73,2.73,0,0,1,.72,2.17c0,.1,0,.31,0,.62s0,.52,0,.62c0,.93,0,2.3,0,4.14h-1.52C642.25,96.87,642.31,95.27,642.31,93.51Z" style="fill:#5d234b"/><path d="M656.23,93.51a2.4,2.4,0,0,0-.46-1.75,2.15,2.15,0,0,0-1.51-.43,2.81,2.81,0,0,0-1.84.87c0,.67,0,1.34,0,2,0,.93,0,2.3.05,4.14h-1.51c.12-1.58.18-3.18.18-4.81a2.4,2.4,0,0,0-.46-1.75,2.08,2.08,0,0,0-1.47-.43,2.76,2.76,0,0,0-1.94.87q0,2.63,0,6.12h-1.51c.1-1.88.16-3.25.16-4.09a19,19,0,0,0-.38-3.77l1.46-.2.15,1h.09a3.31,3.31,0,0,1,2.4-1.1c1.31,0,2.15.37,2.53,1.1h.09a3.8,3.8,0,0,1,2.47-1.1,3.16,3.16,0,0,1,2.11.61,2.73,2.73,0,0,1,.72,2.17c0,.1,0,.31,0,.62s0,.52,0,.62c0,.93,0,2.3,0,4.14H656C656.17,96.87,656.23,95.27,656.23,93.51Z" style="fill:#5d234b"/><path d="M666.73,98.31l-1.29,0a3.23,3.23,0,0,1-.12-.77h-.08a4,4,0,0,1-2.68.93,2.77,2.77,0,0,1-2.09-.69,4.26,4.26,0,0,1-.65-2.79c0-.2,0-.5,0-.89s0-.66,0-.81c0-.81,0-1.77-.14-2.87l1.55-.06c-.07,1.07-.1,2-.1,2.74a10.91,10.91,0,0,0,.33,3.41,1.47,1.47,0,0,0,1.52.79,3.52,3.52,0,0,0,2.19-.66q0-4.62-.08-6.22l1.49-.06c0,1-.07,2.48-.07,4.32C666.54,95.91,666.61,97.1,666.73,98.31Z" style="fill:#5d234b"/><path d="M675.87,98.32h-1.51q.18-2.19.18-4.77a2.27,2.27,0,0,0-.52-1.74,2.11,2.11,0,0,0-1.48-.47,3.28,3.28,0,0,0-2.18.85q0,2.84,0,6.13h-1.51c.09-1.88.14-3.25.14-4.09a18.76,18.76,0,0,0-.37-3.77l1.46-.2.16,1h.07A3.86,3.86,0,0,1,673,90.16a3.28,3.28,0,0,1,2.13.61,2.63,2.63,0,0,1,.76,2.17c0,.1,0,.31,0,.62s0,.52,0,.62C675.83,95.11,675.85,96.48,675.87,98.32Z" style="fill:#5d234b"/><path d="M679.54,98.32H678c.08-1.11.12-2.37.12-3.8a23.69,23.69,0,0,0-.29-4l1.66-.23c-.07,1.16-.1,2.58-.1,4.25C679.43,95.85,679.47,97.12,679.54,98.32Zm.35-10.38a1.11,1.11,0,0,1-.27.74,1,1,0,0,1-.77.31.81.81,0,0,1-.66-.27,1,1,0,0,1-.24-.65,1,1,0,0,1,.28-.73A1,1,0,0,1,679,87a.83.83,0,0,1,.65.27A1,1,0,0,1,679.89,87.94Z" style="fill:#5d234b"/><path d="M686.29,97.17l-.1,1.08a3.57,3.57,0,0,1-1.23.24,2.38,2.38,0,0,1-2.05-.76,4.93,4.93,0,0,1-.54-2.72c0-.84,0-2,0-3.31-.31,0-.76,0-1.37,0l0-1.2c.53,0,1,0,1.41,0q0-.5.09-2.37l1.3-.13c-.09,1.16-.14,2-.14,2.5.54,0,1.34,0,2.39-.09l-.06,1.24c-1,0-1.79,0-2.4,0,0,.84,0,1.78,0,2.82a4.72,4.72,0,0,0,.36,2.27,1.5,1.5,0,0,0,1.34.55A4.23,4.23,0,0,0,686.29,97.17Z" style="fill:#5d234b"/><path d="M694.29,90.43A15.38,15.38,0,0,1,693,93.82a35.28,35.28,0,0,0-1.78,4.6,8.49,8.49,0,0,1-1.06,2.75,3,3,0,0,1-2.37.82l-.07-1.17a2.32,2.32,0,0,0,1.73-.7,2.43,2.43,0,0,0,.69-1.77A16.17,16.17,0,0,0,688.64,94q-1.53-3.47-1.53-3.54h1.72a27.83,27.83,0,0,0,1,3,15.82,15.82,0,0,1,1,3.45H691a15.65,15.65,0,0,1,.88-3.13,14.21,14.21,0,0,0,.88-3.34Z" style="fill:#5d234b"/></svg>