<svg xmlns="http://www.w3.org/2000/svg" viewBox="0 0 651.97 96.46"><title>Asset 1</title><path d="M38.37,95.47A48.9,48.9,0,0,1,1.5,60.32a52.09,52.09,0,0,1,0-24.7A48.44,48.44,0,0,1,35.65,1.26C40.26,0,42.19-.16,50.14.12c7.53.26,10,.62,13.88,2A48.46,48.46,0,0,1,94.59,61.72c-2.37,8.1-6,14-12.62,20.66-4.89,4.9-6.8,6.3-12.21,8.9-10.16,4.89-21.4,6.39-31.39,4.19Zm12.91-2.74c.92-1.4,1-2,.33-3.45-1-2.21,0-3.61,2.62-3.61A13.26,13.26,0,0,0,59.11,84c4.8-2.68,12.68-3.15,12.68-.75a2.33,2.33,0,0,0,2.95,2c1.41-.54,1.43-3.56,0-4.1-2.34-.9,1-9.27,5-12.49a13.62,13.62,0,0,0,3-3.72c1.51-3,2.3-3.29,4.15-1.55a3.51,3.51,0,0,0,5.34-4.56,2.56,2.56,0,0,0-3.08-1.37c-1.1.16-2.18,0-2.4-.36a48.89,48.89,0,0,1-.66-7.82c-.31-8.8.79-12.7,3.69-13,1.4-.16,1.87-.62,2-2,.24-2.13-1.59-2.9-3.35-1.41-1,.81-1.41.8-3.11-.08C82.81,31.4,79.36,27.4,77.88,24a13.83,13.83,0,0,0-2.63-4.06c-1.91-1.71-1.82-3.39.25-4.33a2.54,2.54,0,0,0,1.69-2.7c0-4.71-5.72-5.48-7.06-1-.7,2.38-1.95,2.74-4,1.16a5.92,5.92,0,0,0-3.08-1c-5.84,0-13.24-4.53-12.46-7.63C51.07,2.4,49.24.71,47.6,1.75a2.84,2.84,0,0,0-1.15,2.12c0,3.42-5.67,7.05-12.28,7.93-2,.26-3.88.88-4.31,1.39-1.28,1.55-2.45,1.05-3.75-1.6-.89-1.83-1.73-2.59-3-2.74-3.75-.43-5.34,4.09-2.28,6.5,1.93,1.52,2.18,3.15.62,4-.58.32-2.18,2.65-3.54,5.16a19.72,19.72,0,0,1-5.34,6.64c-2.58,1.87-3,2-4.51,1.19-2.18-1.16-3.92-.45-3.64,1.49.15,1.07.74,1.58,2,1.73s2.07.87,2.89,2.7c1.18,2.66,1.33,4.76,1,13.29L10,57l-2.34.23a7.55,7.55,0,0,0-3.19.92c-1.2,1-1,3.92.27,5.38,1.47,1.63,3.28,1.57,5-.17,1.51-1.5,3.32-1.31,3.32.37,0,.56,1.5,2.68,3.34,4.71,3.83,4.23,5.12,6.47,5.79,10,.37,2,.26,2.51-.54,2.51-1.37,0-2,2-1.09,3.12,1.15,1.39,3.37,1.13,3.78-.43.73-2.78,8.27-2.6,13.5.32a13.42,13.42,0,0,0,4.92,1.71c2.29,0,4,1.71,2.81,2.87s-1,4.07,0,5.1c1.44,1.44,4.46,1,5.68-.91ZM37,79.85a25.11,25.11,0,0,0-7.85-.71l-4.49.27-.41-3.11a22.17,22.17,0,0,0-2.64-6.83c-3-5-3.27-5.87-2.18-7,.52-.52,3.07-1.11,5.77-1.34,4.66-.39,11.06-2.76,14.42-5.35,1.23-.94,1.23-1,.06-2.83a13.27,13.27,0,0,1-1.62-4.33c-.35-2.2-.64-2.5-2.57-2.69-3.44-.33-10.09,1.69-14.48,4.4-5.37,3.31-6,2.88-7.11-4.77a35.4,35.4,0,0,0-1.86-7.83c-1.34-2.6-1.37-2.52,1.17-3.8a34.36,34.36,0,0,0,6.4-5.58c5.35-5.7,5.79-5.54,9.4,3.25,1.25,3,7.55,10.16,9,10.16a5.75,5.75,0,0,0,2.41-1.94,11.52,11.52,0,0,1,3.67-2.78c1.12-.47,2-1.15,2-1.52,0-.91-3.85-8-5.26-9.64a29.09,29.09,0,0,0-3.72-3.32c-5.1-3.86-4.86-5.54,1.19-8.11a33,33,0,0,0,7.09-4.22l2.81-2.41L50.4,9.93c2,2,8.34,5.54,9.74,5.54,1.16,0,2.91,2.49,2.5,3.56a23.67,23.67,0,0,1-4.25,4.39c-3.48,3-6.71,7.71-7.78,11.29-.33,1.09.16,1.66,2.47,2.89A11.92,11.92,0,0,1,57,40.84l1,1.71,3.51-3.15c2.59-2.33,4.22-4.65,6.21-8.82s3-5.66,4-5.66c.75,0,3.48,2.19,6.3,5.06s5.48,5.07,6.09,5.07c1.37,0,1.36.15-.24,4.72a24.74,24.74,0,0,0-1.33,6.54c0,3.77-1.06,6.29-2.56,6.29-.67,0-2.88-1.07-4.91-2.38-4.14-2.67-6.69-3.53-12.2-4.13l-3.78-.42-.43,2.69a11.44,11.44,0,0,1-1.86,4.51c-1.4,1.77-1.4,1.85-.18,2.8a32.5,32.5,0,0,0,13.41,5.4c8.45.81,8.92,1.43,5.43,7.09a33.13,33.13,0,0,0-3.3,7.43l-.91,3.58-4-.15a33.16,33.16,0,0,0-7.95.9c-5,1.34-6.12.68-5.53-3.32,1-6.92,1.17-12.22.41-15.79L53.45,57h-9.9l-.68,2.37a24.07,24.07,0,0,0-.47,13c1.37,5.2,1.31,7-.27,7.88a5.63,5.63,0,0,1-1.52.64ZM52.38,51c3.78-3.52,4.56-4.62,4.56-6.39a3.39,3.39,0,0,0-1.6-3.19c-1.77-1.16-3.38-.82-5.6,1.17-1.44,1.3-1.47,1.3-2.87-.1-2.9-2.9-7.48-1.55-7.48,2.2,0,.74,1.79,3.05,4,5.22s4.05,4.22,4.05,4.62.07.73.17.73S49.87,53.38,52.38,51Z" style="fill:#5d234b"/><path d="M141.27,69.86a31,31,0,0,1-9.7,1.58q-10.29,0-15.51-5.49a18.92,18.92,0,0,1-5.23-13.58,20.28,20.28,0,0,1,5.68-14.28Q122.2,32,132.27,32a27,27,0,0,1,6.89.85l-.73,4.86a34.92,34.92,0,0,0-7.8-1.17q-7.08,0-10.85,4.29A15.57,15.57,0,0,0,116,51.46a16.2,16.2,0,0,0,4.32,11.19c2.89,3.21,7,4.81,12.21,4.81a31.73,31.73,0,0,0,4.3-.44,44.8,44.8,0,0,1-.49-7.09,53.73,53.73,0,0,0-.41-6.65h5.33q-.24,3.87-.24,8.17Q141,63.3,141.27,69.86Z" style="fill:#5d234b"/><path d="M171,70.65l-4.6.18a11.75,11.75,0,0,1-.35-2.73h-.29q-3.6,3.29-9.81,3.28a9,9,0,0,1-5.81-2,6.86,6.86,0,0,1-2.43-5.64,8.5,8.5,0,0,1,3.81-7.25q3.81-2.75,14.15-2.89a12.87,12.87,0,0,0,.09-1.61c0-2.4-.64-4-1.92-4.81a11.17,11.17,0,0,0-5.81-1.2A36.4,36.4,0,0,0,149,47.15l.5-4a36.78,36.78,0,0,1,10.11-1.26c3.47,0,6.16.72,8,2.16s2.85,3.88,2.85,7.33c0,.92,0,2.59-.14,5s-.13,4-.13,4.82A51.79,51.79,0,0,0,171,70.65ZM165.85,65q-.15-4.45-.15-8a32.32,32.32,0,0,0-8.38.82c-3.2,1-4.8,2.84-4.8,5.6s1.87,4,5.62,4A11.64,11.64,0,0,0,165.85,65Z" style="fill:#5d234b"/><path d="M194.53,66.61l-.35,3.81a12.84,12.84,0,0,1-4.37.85c-3.51,0-5.92-.9-7.2-2.68s-1.94-5-1.94-9.6c0-3,0-6.88.06-11.69q-1.64,0-4.83.18l.17-4.25c1.86.12,3.52.17,5,.17q0-1.76.3-8.34l4.6-.47c-.34,4.1-.5,7-.5,8.81,1.91,0,4.72-.09,8.44-.29l-.21,4.37q-5.28-.18-8.47-.18-.06,4.43-.06,10,0,6,1.28,8t4.73,1.94A14.49,14.49,0,0,0,194.53,66.61Z" style="fill:#5d234b"/><path d="M224.82,70.65h-5.33q.64-7.71.65-16.58c0-3.17-.6-5.3-1.78-6.4a6.86,6.86,0,0,0-4.9-1.66,13.11,13.11,0,0,0-8.24,3q0,16,.24,21.62H200.3q.27-7.74.26-21.85a172.18,172.18,0,0,0-.84-19.37l5.56-.29q-.22,8.93-.23,16.58h.17a14.29,14.29,0,0,1,9.64-3.87A11.2,11.2,0,0,1,222.19,44c1.75,1.46,2.63,4,2.63,7.67,0,.37,0,1.09-.06,2.18s0,2,0,2.85Q224.71,61,224.82,70.65Z" style="fill:#5d234b"/><path d="M256.52,53.45c0,.82,0,2-.12,3.4l-20.12.35a10.56,10.56,0,0,0,3.31,7.17,11.11,11.11,0,0,0,8,2.88,31.15,31.15,0,0,0,8.35-1.08l-.5,4.13a23.46,23.46,0,0,1-8.29,1.14q-7.62,0-11.62-4.16a14.05,14.05,0,0,1-4-10.13,17.24,17.24,0,0,1,3.65-11,11.86,11.86,0,0,1,9.8-4.61c3.77,0,6.63,1.11,8.6,3.34A12.52,12.52,0,0,1,256.52,53.45Zm-4.89.06q0-8.23-6.89-8.23t-8.29,8.55Z" style="fill:#5d234b"/><path d="M281,42.82l-1.31,4.66a11.5,11.5,0,0,0-4.25-.91,6.85,6.85,0,0,0-7.15,5.24q0,13.48.18,18.84h-5.19q.47-9.29.47-14.41a62.48,62.48,0,0,0-1.38-13.3l5.13-.74a32.3,32.3,0,0,1,.56,4.31h.23q3.17-4.66,7.38-4.66A18.2,18.2,0,0,1,281,42.82Z" style="fill:#5d234b"/><path d="M289.86,70.65h-5.3q.4-5.87.41-13.39a82.06,82.06,0,0,0-1-14.21l5.86-.79q-.35,6.12-.35,15Q289.45,64.3,289.86,70.65ZM291.09,34a3.79,3.79,0,0,1-1,2.59,3.44,3.44,0,0,1-2.73,1.1,3,3,0,0,1-2.33-.95,3.4,3.4,0,0,1-.83-2.3,3.65,3.65,0,0,1,1-2.55A3.57,3.57,0,0,1,288,30.84a2.86,2.86,0,0,1,2.27.95A3.3,3.3,0,0,1,291.09,34Z" style="fill:#5d234b"/><path d="M322.44,70.65h-5.33q.64-7.71.64-16.82c0-3-.61-5.06-1.83-6.16A7.5,7.5,0,0,0,310.69,46,11.54,11.54,0,0,0,303,49q0,10,.11,21.62H297.8q.49-10,.5-14.41A67.56,67.56,0,0,0,297,42.94l5.16-.74.55,3.58H303a13.61,13.61,0,0,1,9.28-3.93q4.88,0,7.53,2.16t2.67,7.66q0,.55-.06,2.19c0,1.1-.06,1.83-.06,2.2Q322.32,61,322.44,70.65Z" style="fill:#5d234b"/><path d="M357.65,39.13l-.46,4q-5.46,0-6,1.76v.29a8,8,0,0,1,1.88,5.22,10.18,10.18,0,0,1-3,7.54q-3,3-9.27,3a13.5,13.5,0,0,1-4.42-.58,3,3,0,0,0-1.44,2.55,2.42,2.42,0,0,0,1.7,2.49c1.44.54,4.46.82,9.05.82q11.13,0,11.14,7.38a10.7,10.7,0,0,1-4.34,8.73q-4.34,3.47-11.22,3.46-7.06,0-10.06-2.57a7.81,7.81,0,0,1-3-6.16,8.7,8.7,0,0,1,1.48-5.28,6.15,6.15,0,0,1,3.68-2.46v-.26c-1.54-.74-2.32-2.17-2.32-4.28q0-2.87,2.93-5v-.23a8.82,8.82,0,0,1-3-2.58,7.18,7.18,0,0,1-1.4-4.51,10,10,0,0,1,3.07-7.59c2.06-2,5-2.93,8.91-2.93a14,14,0,0,1,7.5,1.73h.32q.94-4.95,4.92-5A9.71,9.71,0,0,1,357.65,39.13ZM352.41,75.6a4.08,4.08,0,0,0-2-3.88c-1.33-.75-3.85-1.13-7.54-1.13a60,60,0,0,1-6.86-.35q-3.57,1.73-3.57,5.07,0,7.14,9.38,7.15a13.76,13.76,0,0,0,7.74-1.91A5.73,5.73,0,0,0,352.41,75.6Zm-4.07-24a6.09,6.09,0,0,0-2-4.94A7.77,7.77,0,0,0,341.13,45a7.51,7.51,0,0,0-4.95,1.65,5.77,5.77,0,0,0-2,4.7,6,6,0,0,0,2,4.87,8,8,0,0,0,5.23,1.67,7.44,7.44,0,0,0,4.91-1.63A5.62,5.62,0,0,0,348.34,51.64Z" style="fill:#5d234b"/><path d="M392,29.08,391.11,33a14.07,14.07,0,0,0-3.51-.44A3.6,3.6,0,0,0,384,34.63c-.64,1.42-.95,4.34-.95,8.77,1.93,0,4.64-.09,8.11-.29l-.17,4.37Q385,47.3,383,47.3q0,13.34.35,23.35H378.1q.42-9.75.41-23.35-1.78,0-6.24.18l.21-4.31c2.69.16,4.71.23,6,.23q0-7.76,2.17-11.29c1.45-2.35,3.75-3.53,6.92-3.53A20.62,20.62,0,0,1,392,29.08Z" style="fill:#5d234b"/><path d="M422.58,55.89q0,7.5-4.31,11.7a14,14,0,0,1-10.14,4.2,13.11,13.11,0,0,1-9.36-3.72q-3.9-3.72-3.91-10.49,0-7.55,4.32-11.8a14,14,0,0,1,10.15-4.25,13,13,0,0,1,9.35,3.76Q422.58,49.05,422.58,55.89Zm-5.07,1a14.66,14.66,0,0,0-2.3-8.13,7.87,7.87,0,0,0-13-.19,13.69,13.69,0,0,0-2.27,7.82,14.68,14.68,0,0,0,2.3,8.15,7.39,7.39,0,0,0,6.58,3.54,7.32,7.32,0,0,0,6.47-3.38A13.72,13.72,0,0,0,417.51,56.91Z" style="fill:#5d234b"/><path d="M447,42.82l-1.32,4.66a11.46,11.46,0,0,0-4.25-.91,6.86,6.86,0,0,0-7.15,5.24q0,13.48.18,18.84h-5.19q.48-9.29.47-14.41a63.14,63.14,0,0,0-1.37-13.3l5.12-.74a32.3,32.3,0,0,1,.56,4.31h.23q3.17-4.66,7.39-4.66A18.26,18.26,0,0,1,447,42.82Z" style="fill:#5d234b"/><path d="M512.61,32.51q0,2.13-6.33,19.16t-6.33,19h-3.81q0-2.58-4.6-14.94-5-13.4-5.68-17.26h-.38q-.59,4.11-5,17.58-4.17,12.63-4.16,14.62h-3.81q0-3-6.2-20t-6.19-18.12h5.56q0,1.2,4.44,15.17t4.44,17.11h.32q0-3.32,4.51-17t4.52-15.27H489q0,1.91,4.69,16.24t4.69,16h.32q0-2.87,4.26-16.24t4.27-16Z" style="fill:#5d234b"/><path d="M541.81,55.89q0,7.5-4.3,11.7a14,14,0,0,1-10.14,4.2A13.11,13.11,0,0,1,518,68.07q-3.91-3.72-3.91-10.49,0-7.55,4.32-11.8a14,14,0,0,1,10.15-4.25,13,13,0,0,1,9.35,3.76Q541.82,49.05,541.81,55.89Zm-5.06,1a14.66,14.66,0,0,0-2.3-8.13,7.87,7.87,0,0,0-13-.19,13.69,13.69,0,0,0-2.27,7.82,14.68,14.68,0,0,0,2.3,8.15,7.88,7.88,0,0,0,13,.16A13.8,13.8,0,0,0,536.75,56.91Z" style="fill:#5d234b"/><path d="M585.38,53.69c0-3.13-.54-5.19-1.63-6.2S580.89,46,578.41,46q-3.13,0-6.48,3.08c-.08,2.38-.12,4.72-.12,7q0,4.89.18,14.59h-5.33q.65-8.36.64-17c0-3.13-.54-5.19-1.62-6.2S562.86,46,560.48,46a9.79,9.79,0,0,0-6.86,3.08q0,9.28.12,21.59h-5.33q.55-10,.55-14.41a67,67,0,0,0-1.32-13.3l5.16-.74.53,3.55h.29a11.61,11.61,0,0,1,8.47-3.9q6.95,0,8.93,3.9h.33q4.42-3.9,8.73-3.9,4.92,0,7.44,2.17c1.68,1.45,2.52,4,2.52,7.65q0,.55-.06,2.19c0,1.1-.06,1.83-.06,2.2q0,4.89.12,14.59h-5.33Q585.37,63,585.38,53.69Z" style="fill:#5d234b"/><path d="M619.72,70.65l-4.6.18a11.27,11.27,0,0,1-.36-2.73h-.29q-3.6,3.29-9.81,3.28a8.93,8.93,0,0,1-5.8-2,6.84,6.84,0,0,1-2.44-5.64,8.5,8.5,0,0,1,3.81-7.25q3.81-2.75,14.15-2.89a12.87,12.87,0,0,0,.09-1.61c0-2.4-.64-4-1.92-4.81a11.17,11.17,0,0,0-5.81-1.2,36.4,36.4,0,0,0-9.06,1.14l.5-4a36.78,36.78,0,0,1,10.11-1.26c3.48,0,6.16.72,8.06,2.16s2.84,3.88,2.84,7.33c0,.92-.05,2.59-.13,5s-.14,4-.14,4.82A50.87,50.87,0,0,0,619.72,70.65ZM614.53,65q-.15-4.45-.15-8a32.32,32.32,0,0,0-8.38.82c-3.2,1-4.8,2.84-4.8,5.6s1.87,4,5.62,4A11.62,11.62,0,0,0,614.53,65Z" style="fill:#5d234b"/><path d="M652,70.65h-5.33q.65-7.71.64-16.82c0-3-.61-5.06-1.83-6.16A7.5,7.5,0,0,0,640.22,46a11.54,11.54,0,0,0-7.67,3q0,10,.11,21.62h-5.33q.49-10,.5-14.41a67.56,67.56,0,0,0-1.29-13.3l5.16-.74.55,3.58h.24a13.64,13.64,0,0,1,9.29-3.93q4.86,0,7.53,2.16T652,51.67q0,.55-.06,2.19c0,1.1-.06,1.83-.06,2.2Q651.85,61,652,70.65Z" style="fill:#5d234b"/></svg>