<svg xmlns="http://www.w3.org/2000/svg" viewBox="0 0 96.59 96.46"><title>Asset 2</title><path d="M38.37,95.47A48.9,48.9,0,0,1,1.5,60.32a52.09,52.09,0,0,1,0-24.7A48.44,48.44,0,0,1,35.65,1.26C40.26,0,42.19-.16,50.14.12c7.53.26,10,.62,13.88,2A48.46,48.46,0,0,1,94.59,61.72c-2.37,8.1-6,14-12.62,20.66-4.89,4.9-6.8,6.3-12.21,8.9-10.16,4.89-21.4,6.39-31.39,4.19Zm12.91-2.74c.92-1.4,1-2,.33-3.45-1-2.21,0-3.61,2.62-3.61A13.26,13.26,0,0,0,59.11,84c4.8-2.68,12.68-3.15,12.68-.75a2.33,2.33,0,0,0,2.95,2c1.41-.54,1.43-3.56,0-4.1-2.34-.9,1-9.27,5-12.49a13.62,13.62,0,0,0,3-3.72c1.51-3,2.3-3.29,4.15-1.55a3.51,3.51,0,0,0,5.34-4.56,2.56,2.56,0,0,0-3.08-1.37c-1.1.16-2.18,0-2.4-.36a48.89,48.89,0,0,1-.66-7.82c-.31-8.8.79-12.7,3.69-13,1.4-.16,1.87-.62,2-2,.24-2.13-1.59-2.9-3.35-1.41-1,.81-1.41.8-3.11-.08C82.81,31.4,79.36,27.4,77.88,24a13.83,13.83,0,0,0-2.63-4.06c-1.91-1.71-1.82-3.39.25-4.33a2.54,2.54,0,0,0,1.69-2.7c0-4.71-5.72-5.48-7.06-1-.7,2.38-1.95,2.74-4,1.16a5.92,5.92,0,0,0-3.08-1c-5.84,0-13.24-4.53-12.46-7.63C51.07,2.4,49.24.71,47.6,1.75a2.84,2.84,0,0,0-1.15,2.12c0,3.42-5.67,7.05-12.28,7.93-2,.26-3.88.88-4.31,1.39-1.28,1.55-2.45,1.05-3.75-1.6-.89-1.83-1.73-2.59-3-2.74-3.75-.43-5.34,4.09-2.28,6.5,1.93,1.52,2.18,3.15.62,4-.58.32-2.18,2.65-3.54,5.16a19.72,19.72,0,0,1-5.34,6.64c-2.58,1.87-3,2-4.51,1.19-2.18-1.16-3.92-.45-3.64,1.49.15,1.07.74,1.58,2,1.73s2.07.87,2.89,2.7c1.18,2.66,1.33,4.76,1,13.29L10,57l-2.34.23a7.55,7.55,0,0,0-3.19.92c-1.2,1-1,3.92.27,5.38,1.47,1.63,3.28,1.57,5-.17,1.51-1.5,3.32-1.31,3.32.37,0,.56,1.5,2.68,3.34,4.71,3.83,4.23,5.12,6.47,5.79,10,.37,2,.26,2.51-.54,2.51-1.37,0-2,2-1.09,3.12,1.15,1.39,3.37,1.13,3.78-.43.73-2.78,8.27-2.6,13.5.32a13.42,13.42,0,0,0,4.92,1.71c2.29,0,4,1.71,2.81,2.87s-1,4.07,0,5.1c1.44,1.44,4.46,1,5.68-.91ZM37,79.85a25.11,25.11,0,0,0-7.85-.71l-4.49.27-.41-3.11a22.17,22.17,0,0,0-2.64-6.83c-3-5-3.27-5.87-2.18-7,.52-.52,3.07-1.11,5.77-1.34,4.66-.39,11.06-2.76,14.42-5.35,1.23-.94,1.23-1,.06-2.83a13.27,13.27,0,0,1-1.62-4.33c-.35-2.2-.64-2.5-2.57-2.69-3.44-.33-10.09,1.69-14.48,4.4-5.37,3.31-6,2.88-7.11-4.77a35.4,35.4,0,0,0-1.86-7.83c-1.34-2.6-1.37-2.52,1.17-3.8a34.36,34.36,0,0,0,6.4-5.58c5.35-5.7,5.79-5.54,9.4,3.25,1.25,3,7.55,10.16,9,10.16a5.75,5.75,0,0,0,2.41-1.94,11.52,11.52,0,0,1,3.67-2.78c1.12-.47,2-1.15,2-1.52,0-.91-3.85-8-5.26-9.64a29.09,29.09,0,0,0-3.72-3.32c-5.1-3.86-4.86-5.54,1.19-8.11a33,33,0,0,0,7.09-4.22l2.81-2.41L50.4,9.93c2,2,8.34,5.54,9.74,5.54,1.16,0,2.91,2.49,2.5,3.56a23.67,23.67,0,0,1-4.25,4.39c-3.48,3-6.71,7.71-7.78,11.29-.33,1.09.16,1.66,2.47,2.89A11.92,11.92,0,0,1,57,40.84l1,1.71,3.51-3.15c2.59-2.33,4.22-4.65,6.21-8.82s3-5.66,4-5.66c.75,0,3.48,2.19,6.3,5.06s5.48,5.07,6.09,5.07c1.37,0,1.36.15-.24,4.72a24.74,24.74,0,0,0-1.33,6.54c0,3.77-1.06,6.29-2.56,6.29-.67,0-2.88-1.07-4.91-2.38-4.14-2.67-6.69-3.53-12.2-4.13l-3.78-.42-.43,2.69a11.44,11.44,0,0,1-1.86,4.51c-1.4,1.77-1.4,1.85-.18,2.8a32.5,32.5,0,0,0,13.41,5.4c8.45.81,8.92,1.43,5.43,7.09a33.13,33.13,0,0,0-3.3,7.43l-.91,3.58-4-.15a33.16,33.16,0,0,0-7.95.9c-5,1.34-6.12.68-5.53-3.32,1-6.92,1.17-12.22.41-15.79L53.45,57h-9.9l-.68,2.37a24.07,24.07,0,0,0-.47,13c1.37,5.2,1.31,7-.27,7.88a5.63,5.63,0,0,1-1.52.64ZM52.38,51c3.78-3.52,4.56-4.62,4.56-6.39a3.39,3.39,0,0,0-1.6-3.19c-1.77-1.16-3.38-.82-5.6,1.17-1.44,1.3-1.47,1.3-2.87-.1-2.9-2.9-7.48-1.55-7.48,2.2,0,.74,1.79,3.05,4,5.22s4.05,4.22,4.05,4.62.07.73.17.73S49.87,53.38,52.38,51Z" style="fill:#5d234b"/></svg>